<svg width="16" height="28" viewBox="0 0 16 28" fill="none" xmlns="http://www.w3.org/2000/svg">
<path d="M8.12853 9.20708C5.89259 9.20708 4.08907 11.0106 4.08907 13.2465C4.08907 15.4825 5.89259 17.286 8.12853 17.286C10.3645 17.286 12.168 15.4825 12.168 13.2465C12.168 11.0106 10.3645 9.20708 8.12853 9.20708ZM8.12853 15.8727C6.68361 15.8727 5.50236 14.695 5.50236 13.2465C5.50236 11.7981 6.68009 10.6204 8.12853 10.6204C9.57697 10.6204 10.7547 11.7981 10.7547 13.2465C10.7547 14.695 9.57345 15.8727 8.12853 15.8727ZM13.2754 9.04185C13.2754 9.56567 12.8535 9.98403 12.3332 9.98403C11.8094 9.98403 11.391 9.56216 11.391 9.04185C11.391 8.52153 11.8129 8.09966 12.3332 8.09966C12.8535 8.09966 13.2754 8.52153 13.2754 9.04185ZM15.9508 9.9981C15.891 8.73599 15.6027 7.61802 14.6781 6.69692C13.757 5.77583 12.6391 5.48755 11.377 5.42427C10.0762 5.35044 6.17736 5.35044 4.87657 5.42427C3.61798 5.48403 2.50001 5.77231 1.5754 6.69341C0.650794 7.6145 0.366028 8.73247 0.302747 9.99458C0.228918 11.2954 0.228918 15.1942 0.302747 16.495C0.362512 17.7571 0.650794 18.875 1.5754 19.7961C2.50001 20.7172 3.61447 21.0055 4.87657 21.0688C6.17736 21.1426 10.0762 21.1426 11.377 21.0688C12.6391 21.009 13.757 20.7208 14.6781 19.7961C15.5992 18.875 15.8875 17.7571 15.9508 16.495C16.0246 15.1942 16.0246 11.2989 15.9508 9.9981ZM14.2703 17.8907C13.9961 18.5797 13.4652 19.1106 12.7727 19.3883C11.7356 19.7997 9.27462 19.7047 8.12853 19.7047C6.98243 19.7047 4.51798 19.7961 3.48439 19.3883C2.79532 19.1141 2.26447 18.5833 1.98673 17.8907C1.5754 16.8536 1.67032 14.3926 1.67032 13.2465C1.67032 12.1004 1.57892 9.63599 1.98673 8.60239C2.26095 7.91333 2.79181 7.38247 3.48439 7.10474C4.5215 6.69341 6.98243 6.78833 8.12853 6.78833C9.27462 6.78833 11.7391 6.69692 12.7727 7.10474C13.4617 7.37895 13.9926 7.90981 14.2703 8.60239C14.6817 9.6395 14.5867 12.1004 14.5867 13.2465C14.5867 14.3926 14.6817 16.8571 14.2703 17.8907Z" fill="#494949"/>
</svg>
