<svg width="16" height="28" viewBox="0 0 16 28" fill="none" xmlns="http://www.w3.org/2000/svg">
<path d="M8.12847 9.20708C5.89253 9.20708 4.08901 11.0106 4.08901 13.2465C4.08901 15.4825 5.89253 17.286 8.12847 17.286C10.3644 17.286 12.1679 15.4825 12.1679 13.2465C12.1679 11.0106 10.3644 9.20708 8.12847 9.20708ZM8.12847 15.8727C6.68355 15.8727 5.50229 14.695 5.50229 13.2465C5.50229 11.7981 6.68003 10.6204 8.12847 10.6204C9.5769 10.6204 10.7546 11.7981 10.7546 13.2465C10.7546 14.695 9.57339 15.8727 8.12847 15.8727ZM13.2753 9.04185C13.2753 9.56567 12.8535 9.98403 12.3332 9.98403C11.8093 9.98403 11.391 9.56216 11.391 9.04185C11.391 8.52153 11.8128 8.09966 12.3332 8.09966C12.8535 8.09966 13.2753 8.52153 13.2753 9.04185ZM15.9507 9.9981C15.891 8.73599 15.6027 7.61802 14.6781 6.69692C13.757 5.77583 12.639 5.48755 11.3769 5.42427C10.0761 5.35044 6.1773 5.35044 4.87651 5.42427C3.61792 5.48403 2.49995 5.77231 1.57534 6.69341C0.650733 7.6145 0.365967 8.73247 0.302686 9.99458C0.228857 11.2954 0.228857 15.1942 0.302686 16.495C0.362451 17.7571 0.650733 18.875 1.57534 19.7961C2.49995 20.7172 3.6144 21.0055 4.87651 21.0688C6.1773 21.1426 10.0761 21.1426 11.3769 21.0688C12.639 21.009 13.757 20.7208 14.6781 19.7961C15.5992 18.875 15.8875 17.7571 15.9507 16.495C16.0246 15.1942 16.0246 11.2989 15.9507 9.9981ZM14.2703 17.8907C13.996 18.5797 13.4652 19.1106 12.7726 19.3883C11.7355 19.7997 9.27456 19.7047 8.12847 19.7047C6.98237 19.7047 4.51792 19.7961 3.48433 19.3883C2.79526 19.1141 2.2644 18.5833 1.98667 17.8907C1.57534 16.8536 1.67026 14.3926 1.67026 13.2465C1.67026 12.1004 1.57886 9.63599 1.98667 8.60239C2.26089 7.91333 2.79175 7.38247 3.48433 7.10474C4.52144 6.69341 6.98237 6.78833 8.12847 6.78833C9.27456 6.78833 11.739 6.69692 12.7726 7.10474C13.4617 7.37895 13.9925 7.90981 14.2703 8.60239C14.6816 9.6395 14.5867 12.1004 14.5867 13.2465C14.5867 14.3926 14.6816 16.8571 14.2703 17.8907Z" fill="white"/>
</svg>
