<svg width="70" height="70" viewBox="0 0 70 70" fill="none" xmlns="http://www.w3.org/2000/svg">
<mask id="mask0_263_121" style="mask-type:alpha" maskUnits="userSpaceOnUse" x="0" y="0" width="70" height="70">
<rect width="70" height="70" fill="#D9D9D9"/>
</mask>
<g mask="url(#mask0_263_121)">
<path d="M32.25 46.4558H38.0833V34.3191L42.75 38.9426L46.8333 34.897L35.1667 23.3382L23.5 34.897L27.5833 38.9426L32.25 34.3191V46.4558ZM35.1667 63.794C31.1319 63.794 27.3403 63.0355 23.7917 61.5184C20.2431 60.0013 17.1562 57.9424 14.5312 55.3416C11.9062 52.7409 9.82813 49.6826 8.29688 46.1668C6.76562 42.651 6 38.8944 6 34.897C6 30.8996 6.76562 27.143 8.29688 23.6272C9.82813 20.1114 11.9062 17.0531 14.5312 14.4524C17.1562 11.8516 20.2431 9.79273 23.7917 8.27564C27.3403 6.75855 31.1319 6 35.1667 6C39.2014 6 42.9931 6.75855 46.5417 8.27564C50.0903 9.79273 53.1771 11.8516 55.8021 14.4524C58.4271 17.0531 60.5052 20.1114 62.0365 23.6272C63.5677 27.143 64.3333 30.8996 64.3333 34.897C64.3333 38.8944 63.5677 42.651 62.0365 46.1668C60.5052 49.6826 58.4271 52.7409 55.8021 55.3416C53.1771 57.9424 50.0903 60.0013 46.5417 61.5184C42.9931 63.0355 39.2014 63.794 35.1667 63.794ZM35.1667 58.0146C41.6806 58.0146 47.1979 55.7751 51.7188 51.2961C56.2396 46.817 58.5 41.3507 58.5 34.897C58.5 28.4433 56.2396 22.977 51.7188 18.498C47.1979 14.0189 41.6806 11.7794 35.1667 11.7794C28.6528 11.7794 23.1354 14.0189 18.6146 18.498C14.0938 22.977 11.8333 28.4433 11.8333 34.897C11.8333 41.3507 14.0938 46.817 18.6146 51.2961C23.1354 55.7751 28.6528 58.0146 35.1667 58.0146Z" fill="#1C1B1F"/>
</g>
</svg>
