<svg width="70" height="70" viewBox="0 0 70 70" fill="none" xmlns="http://www.w3.org/2000/svg">
<mask id="mask0_263_149" style="mask-type:alpha" maskUnits="userSpaceOnUse" x="0" y="0" width="70" height="70">
<rect width="70" height="70" fill="#D9D9D9"/>
</mask>
<g mask="url(#mask0_263_149)">
<path d="M32.0834 46.6666H37.9167V34.4166L42.5834 39.0833L46.6667 34.9999L35 23.3333L23.3334 34.9999L27.4167 39.0833L32.0834 34.4166V46.6666ZM35 64.1666C30.9653 64.1666 27.1737 63.401 23.625 61.8697C20.0764 60.3385 16.9896 58.2603 14.3646 55.6353C11.7396 53.0103 9.6615 49.9235 8.13025 46.3749C6.599 42.8263 5.83337 39.0346 5.83337 34.9999C5.83337 30.9652 6.599 27.1735 8.13025 23.6249C9.6615 20.0763 11.7396 16.9895 14.3646 14.3645C16.9896 11.7395 20.0764 9.66138 23.625 8.13013C27.1737 6.59888 30.9653 5.83325 35 5.83325C39.0348 5.83325 42.8264 6.59888 46.375 8.13013C49.9237 9.66138 53.0105 11.7395 55.6355 14.3645C58.2605 16.9895 60.3386 20.0763 61.8698 23.6249C63.4011 27.1735 64.1667 30.9652 64.1667 34.9999C64.1667 39.0346 63.4011 42.8263 61.8698 46.3749C60.3386 49.9235 58.2605 53.0103 55.6355 55.6353C53.0105 58.2603 49.9237 60.3385 46.375 61.8697C42.8264 63.401 39.0348 64.1666 35 64.1666ZM35 58.3333C41.5139 58.3333 47.0313 56.0728 51.5521 51.552C56.073 47.0312 58.3334 41.5138 58.3334 34.9999C58.3334 28.486 56.073 22.9687 51.5521 18.4478C47.0313 13.927 41.5139 11.6666 35 11.6666C28.4862 11.6666 22.9688 13.927 18.448 18.4478C13.9271 22.9687 11.6667 28.486 11.6667 34.9999C11.6667 41.5138 13.9271 47.0312 18.448 51.552C22.9688 56.0728 28.4862 58.3333 35 58.3333Z" fill="#1C1B1F"/>
</g>
</svg>
