<svg width="23" height="31" viewBox="0 0 23 31" fill="none" xmlns="http://www.w3.org/2000/svg">
<path d="M15.9375 23.25C16.5 21.3809 17.666 19.7871 18.8203 18.1992C19.125 17.7832 19.4297 17.3672 19.7227 16.9453C20.8828 15.2754 21.5625 13.2539 21.5625 11.0684C21.5625 5.36719 16.9453 0.75 11.25 0.75C5.55469 0.75 0.9375 5.36719 0.9375 11.0625C0.9375 13.248 1.61719 15.2754 2.77734 16.9395C3.07031 17.3613 3.375 17.7773 3.67969 18.1934C4.83984 19.7812 6.00586 21.3809 6.5625 23.2441H15.9375V23.25ZM11.25 30.75C13.8398 30.75 15.9375 28.6523 15.9375 26.0625V25.125H6.5625V26.0625C6.5625 28.6523 8.66016 30.75 11.25 30.75ZM6.5625 11.0625C6.5625 11.5781 6.14062 12 5.625 12C5.10938 12 4.6875 11.5781 4.6875 11.0625C4.6875 7.43555 7.62305 4.5 11.25 4.5C11.7656 4.5 12.1875 4.92188 12.1875 5.4375C12.1875 5.95312 11.7656 6.375 11.25 6.375C8.66016 6.375 6.5625 8.47266 6.5625 11.0625Z" fill="#E19051"/>
</svg>
