<svg width="38" height="31" viewBox="0 0 38 31" fill="none" xmlns="http://www.w3.org/2000/svg">
<path d="M4.37109 22.6173C6.81445 24.7325 10.6992 27.4513 14.1035 26.9357C14.4609 26.8829 14.8125 26.7892 15.1582 26.672C14.6191 25.9513 14.1445 25.2423 13.7402 24.5978C12.457 22.547 12.0527 20.1915 12.2227 17.9415C11.0156 18.1818 9.92578 18.7032 9.01758 19.4298C8.63672 19.7345 8.0625 19.506 8.15039 19.0196C8.52539 17.0568 10.084 15.4513 12.1465 15.1349C12.2988 15.1114 12.457 15.0939 12.6094 15.088L13.7461 7.39464C13.8633 6.58605 14.2148 5.47863 15.2109 4.70519C16.3008 3.8673 18.1934 2.91808 21.2812 2.63683C21.2344 2.59581 21.1875 2.5548 21.1406 2.51378C19.957 1.59972 16.8984 0.076283 10.2949 1.07824C3.6914 2.08019 1.20117 4.44152 0.333983 5.66613C-1.75834e-06 6.13488 -0.0468768 6.72667 0.0351545 7.30089L1.45312 16.9278C1.77539 19.1134 2.71289 21.1818 4.37109 22.6232V22.6173ZM9.50976 9.75011C9.76758 9.56847 10.1426 9.63292 10.2012 9.94347C10.207 9.97277 10.2129 10.0079 10.2187 10.0372C10.4062 11.3146 9.53906 12.4982 8.27929 12.6915C7.01953 12.8849 5.84765 12.0001 5.66015 10.7286C5.65429 10.6993 5.65429 10.6642 5.64844 10.6349C5.61328 10.3185 5.95312 10.1427 6.25195 10.2423C6.77929 10.4181 7.35351 10.4708 7.93359 10.3829C8.51367 10.295 9.05273 10.0724 9.5039 9.75011H9.50976ZM15.3281 23.6017C17.0508 26.3497 19.9863 30.0997 23.3906 30.6153C26.7949 31.131 30.6855 28.4181 33.123 26.297C34.7812 24.8614 35.7187 22.7931 36.041 20.6017L37.459 10.9747C37.541 10.4005 37.4941 9.80871 37.1602 9.33996C36.293 8.11535 33.8027 5.75402 27.1992 4.75206C20.5957 3.75011 17.543 5.27355 16.3594 6.18761C15.9023 6.53917 15.6855 7.08995 15.6035 7.66417L14.1855 17.2911C13.8633 19.4767 14.1621 21.7325 15.334 23.6017H15.3281ZM23.7012 14.5372C23.25 14.215 22.7168 13.9923 22.1309 13.9044C21.5449 13.8165 20.9707 13.8693 20.4492 14.045C20.1504 14.1446 19.8105 13.9689 19.8457 13.6525C19.8516 13.6232 19.8516 13.588 19.8574 13.5587C20.0449 12.2814 21.2168 11.4025 22.4766 11.5958C23.7363 11.7892 24.6035 12.9728 24.416 14.2501C24.4102 14.2794 24.4043 14.3146 24.3984 14.3439C24.3398 14.6544 23.9648 14.7189 23.707 14.5372H23.7012ZM31.6816 15.4454C31.623 15.756 31.248 15.8204 30.9902 15.6388C30.5391 15.3165 30.0059 15.0939 29.4199 15.006C28.834 14.9181 28.2598 14.9708 27.7383 15.1466C27.4395 15.2462 27.0996 15.0704 27.1348 14.754C27.1406 14.7247 27.1406 14.6896 27.1465 14.6603C27.334 13.3829 28.5059 12.504 29.7656 12.6974C31.0254 12.8907 31.8926 14.0743 31.7051 15.3517C31.6992 15.381 31.6934 15.4161 31.6875 15.4454H31.6816ZM31.0547 21.2696C29.9062 23.8888 27.1406 25.5177 24.2109 25.0724C21.2812 24.6271 19.1074 22.2482 18.7617 19.4064C18.7031 18.92 19.2832 18.6974 19.6523 19.0138C21.0527 20.2325 22.793 21.0821 24.75 21.3751C26.707 21.6681 28.623 21.381 30.3105 20.6251C30.7559 20.4259 31.248 20.8126 31.0488 21.2638L31.0547 21.2696Z" fill="#E77D2C"/>
</svg>
