<svg width="18" height="28" viewBox="0 0 18 28" fill="none" xmlns="http://www.w3.org/2000/svg">
<path d="M16.1497 9.58381C16.1612 9.7437 16.1612 9.90363 16.1612 10.0635C16.1612 14.9404 12.4493 20.5597 5.66497 20.5597C3.57486 20.5597 1.63325 19.9543 0 18.9036C0.296965 18.9379 0.582469 18.9493 0.890859 18.9493C2.61545 18.9493 4.20303 18.3668 5.4708 17.3732C3.84898 17.3389 2.48984 16.2767 2.02155 14.8148C2.25 14.849 2.47841 14.8719 2.71828 14.8719C3.04949 14.8719 3.38073 14.8262 3.68909 14.7463C1.99874 14.4036 0.730934 12.9188 0.730934 11.1257V11.08C1.22203 11.3541 1.79314 11.5255 2.39843 11.5483C1.40477 10.8858 0.753785 9.75513 0.753785 8.47593C0.753785 7.79067 0.936492 7.1625 1.25631 6.61427C3.0723 8.85284 5.80201 10.3147 8.86289 10.4747C8.8058 10.2006 8.77152 9.91505 8.77152 9.62952C8.77152 7.5965 10.4162 5.94043 12.4606 5.94043C13.5228 5.94043 14.4822 6.38586 15.156 7.1054C15.9898 6.94551 16.7893 6.63712 17.4974 6.21454C17.2233 7.07116 16.6408 7.7907 15.8756 8.24752C16.618 8.16761 17.3375 7.96198 17.9999 7.67648C17.4975 8.40741 16.8693 9.0584 16.1497 9.58381Z" fill="white"/>
</svg>
